<?xml version="1.0" encoding="UTF-8" standalone="no"?>
<!DOCTYPE svg PUBLIC "-//W3C//DTD SVG 1.1//EN"
 "http://www.w3.org/Graphics/SVG/1.1/DTD/svg11.dtd">
<!-- Generated by graphviz version 2.43.0 (0)
 -->
<!-- Title: real_demo_hold_fsm Pages: 1 -->
<svg width="479pt" height="93pt"
 viewBox="0.00 0.00 479.00 92.54" xmlns="http://www.w3.org/2000/svg" xmlns:xlink="http://www.w3.org/1999/xlink">
<g id="graph0" class="graph" transform="scale(1 1) rotate(0) translate(4 88.54)">
<title>real_demo_hold_fsm</title>
<polygon fill="white" stroke="transparent" points="-4,4 -4,-88.54 475,-88.54 475,4 -4,4"/>
<!-- __entry__ -->
<g id="node1" class="node">
<title>__entry__</title>
<ellipse fill="#202124" stroke="#202124" cx="32" cy="-18.54" rx="4.32" ry="4.32"/>
</g>
<!-- https://secorolab.github.io/models/real&#45;demo&#45;hold/fsm/S_START -->
<g id="node2" class="node">
<title>https://secorolab.github.io/models/real&#45;demo&#45;hold/fsm/S_START</title>
<path fill="#e8f0fe" stroke="black" d="M148,-36.54C148,-36.54 113,-36.54 113,-36.54 107,-36.54 101,-30.54 101,-24.54 101,-24.54 101,-12.54 101,-12.54 101,-6.54 107,-0.54 113,-0.54 113,-0.54 148,-0.54 148,-0.54 154,-0.54 160,-6.54 160,-12.54 160,-12.54 160,-24.54 160,-24.54 160,-30.54 154,-36.54 148,-36.54"/>
<text text-anchor="middle" x="130.5" y="-16.04" font-family="Helvetica,sans-Serif" font-size="10.00">S_START</text>
</g>
<!-- __entry__&#45;&gt;https://secorolab.github.io/models/real&#45;demo&#45;hold/fsm/S_START -->
<g id="edge1" class="edge">
<title>__entry__&#45;&gt;https://secorolab.github.io/models/real&#45;demo&#45;hold/fsm/S_START</title>
<path fill="none" stroke="#5f6368" d="M36.67,-18.54C45.6,-18.54 69.33,-18.54 90.56,-18.54"/>
<polygon fill="#5f6368" stroke="#5f6368" points="90.71,-22.04 100.71,-18.54 90.71,-15.04 90.71,-22.04"/>
</g>
<!-- https://secorolab.github.io/models/real&#45;demo&#45;hold/fsm/S_CLOSE -->
<g id="node3" class="node">
<title>https://secorolab.github.io/models/real&#45;demo&#45;hold/fsm/S_CLOSE</title>
<path fill="#ffffff" stroke="black" d="M277,-36.54C277,-36.54 242,-36.54 242,-36.54 236,-36.54 230,-30.54 230,-24.54 230,-24.54 230,-12.54 230,-12.54 230,-6.54 236,-0.54 242,-0.54 242,-0.54 277,-0.54 277,-0.54 283,-0.54 289,-6.54 289,-12.54 289,-12.54 289,-24.54 289,-24.54 289,-30.54 283,-36.54 277,-36.54"/>
<text text-anchor="middle" x="259.5" y="-16.04" font-family="Helvetica,sans-Serif" font-size="10.00">S_CLOSE</text>
</g>
<!-- https://secorolab.github.io/models/real&#45;demo&#45;hold/fsm/S_START&#45;&gt;https://secorolab.github.io/models/real&#45;demo&#45;hold/fsm/S_CLOSE -->
<g id="edge4" class="edge">
<title>https://secorolab.github.io/models/real&#45;demo&#45;hold/fsm/S_START&#45;&gt;https://secorolab.github.io/models/real&#45;demo&#45;hold/fsm/S_CLOSE</title>
<path fill="none" stroke="#5f6368" d="M160,-18.54C177.53,-18.54 200.22,-18.54 219.41,-18.54"/>
<polygon fill="#5f6368" stroke="#5f6368" points="219.65,-22.04 229.65,-18.54 219.65,-15.04 219.65,-22.04"/>
<text text-anchor="middle" x="195" y="-21.34" font-family="Helvetica,sans-Serif" font-size="9.00">E_STEP</text>
</g>
<!-- https://secorolab.github.io/models/real&#45;demo&#45;hold/fsm/S_OPEN -->
<g id="node5" class="node">
<title>https://secorolab.github.io/models/real&#45;demo&#45;hold/fsm/S_OPEN</title>
<path fill="#ffffff" stroke="black" d="M459,-36.54C459,-36.54 428,-36.54 428,-36.54 422,-36.54 416,-30.54 416,-24.54 416,-24.54 416,-12.54 416,-12.54 416,-6.54 422,-0.54 428,-0.54 428,-0.54 459,-0.54 459,-0.54 465,-0.54 471,-6.54 471,-12.54 471,-12.54 471,-24.54 471,-24.54 471,-30.54 465,-36.54 459,-36.54"/>
<text text-anchor="middle" x="443.5" y="-16.04" font-family="Helvetica,sans-Serif" font-size="10.00">S_OPEN</text>
</g>
<!-- https://secorolab.github.io/models/real&#45;demo&#45;hold/fsm/S_CLOSE&#45;&gt;https://secorolab.github.io/models/real&#45;demo&#45;hold/fsm/S_OPEN -->
<g id="edge2" class="edge">
<title>https://secorolab.github.io/models/real&#45;demo&#45;hold/fsm/S_CLOSE&#45;&gt;https://secorolab.github.io/models/real&#45;demo&#45;hold/fsm/S_OPEN</title>
<path fill="none" stroke="#5f6368" d="M289.34,-18.54C320.86,-18.54 371.44,-18.54 405.77,-18.54"/>
<polygon fill="#5f6368" stroke="#5f6368" points="405.87,-22.04 415.87,-18.54 405.87,-15.04 405.87,-22.04"/>
<text text-anchor="middle" x="352.5" y="-21.34" font-family="Helvetica,sans-Serif" font-size="9.00">E_GRIPPER_CLOSED</text>
</g>
<!-- https://secorolab.github.io/models/real&#45;demo&#45;hold/fsm/S_DONE -->
<g id="node4" class="node">
<title>https://secorolab.github.io/models/real&#45;demo&#45;hold/fsm/S_DONE</title>
<path fill="#e6f4ea" stroke="black" d="M48,-80.54C48,-80.54 16,-80.54 16,-80.54 10,-80.54 4,-74.54 4,-68.54 4,-68.54 4,-56.54 4,-56.54 4,-50.54 10,-44.54 16,-44.54 16,-44.54 48,-44.54 48,-44.54 54,-44.54 60,-50.54 60,-56.54 60,-56.54 60,-68.54 60,-68.54 60,-74.54 54,-80.54 48,-80.54"/>
<path fill="none" stroke="black" d="M52,-84.54C52,-84.54 12,-84.54 12,-84.54 6,-84.54 0,-78.54 0,-72.54 0,-72.54 0,-52.54 0,-52.54 0,-46.54 6,-40.54 12,-40.54 12,-40.54 52,-40.54 52,-40.54 58,-40.54 64,-46.54 64,-52.54 64,-52.54 64,-72.54 64,-72.54 64,-78.54 58,-84.54 52,-84.54"/>
<text text-anchor="middle" x="32" y="-60.04" font-family="Helvetica,sans-Serif" font-size="10.00">S_DONE</text>
</g>
<!-- https://secorolab.github.io/models/real&#45;demo&#45;hold/fsm/S_OPEN&#45;&gt;https://secorolab.github.io/models/real&#45;demo&#45;hold/fsm/S_CLOSE -->
<g id="edge3" class="edge">
<title>https://secorolab.github.io/models/real&#45;demo&#45;hold/fsm/S_OPEN&#45;&gt;https://secorolab.github.io/models/real&#45;demo&#45;hold/fsm/S_CLOSE</title>
<path fill="none" stroke="#5f6368" d="M415.99,-8.76C410.14,-7.01 403.92,-5.45 398,-4.54 358.02,1.6 347.01,1.35 307,-4.54 304.35,-4.93 301.65,-5.44 298.94,-6.03"/>
<polygon fill="#5f6368" stroke="#5f6368" points="298.07,-2.64 289.22,-8.47 299.78,-9.43 298.07,-2.64"/>
<text text-anchor="middle" x="352.5" y="-7.34" font-family="Helvetica,sans-Serif" font-size="9.00">E_GRIPPER_OPENED</text>
</g>
</g>
</svg>
